<?xml version="1.0" encoding="utf-8"?>
<!-- Generator: Adobe Illustrator 19.2.1, SVG Export Plug-In . SVG Version: 6.00 Build 0)  -->
<svg xmlns="http://www.w3.org/2000/svg" xmlns:xlink="http://www.w3.org/1999/xlink" version="1.1" id="Layer" x="0px" y="0px" width="512" height="512" viewBox="0 0 64 64" enable-background="new 0 0 64 64" xml:space="preserve">
<path fill="#CCE4FF" d="M50,10H14c-2.21,0-4,1.79-4,4v36c0,2.21,1.79,4,4,4h36c2.21,0,4-1.79,4-4V14C54,11.79,52.21,10,50,10z   M28,46H18V18h10V46z M46,38H36V18h10V38z"/>
<path fill="#007AFF" d="M50,9H14c-2.757,0-5,2.243-5,5v36c0,2.757,2.243,5,5,5h36c2.757,0,5-2.243,5-5V14C55,11.243,52.757,9,50,9z   M53,50c0,1.654-1.346,3-3,3H14c-1.654,0-3-1.346-3-3V14c0-1.654,1.346-3,3-3h36c1.654,0,3,1.346,3,3V50z"/>
<path fill="#007AFF" d="M28,17H18c-0.553,0-1,0.448-1,1v28c0,0.552,0.447,1,1,1h10c0.553,0,1-0.448,1-1V18  C29,17.448,28.553,17,28,17z M27,45h-8V19h8V45z"/>
<path fill="#007AFF" d="M46,17H36c-0.553,0-1,0.448-1,1v20c0,0.552,0.447,1,1,1h10c0.553,0,1-0.448,1-1V18  C47,17.448,46.553,17,46,17z M45,37h-8V19h8V37z"/>
</svg>
