<svg width="512" height="512" viewBox="0 0 512 512" fill="none" xmlns="http://www.w3.org/2000/svg">
<path d="M256 512C391.31 512 501 402.31 501 267C501 131.69 391.31 22 256 22C120.69 22 11 131.69 11 267C11 402.31 120.69 512 256 512Z" fill="#FFFDE8"/>
<path d="M216.796 378.925C229.446 378.925 241.1 385.287 247.971 395.945C248.14 396.208 248.424 396.377 248.736 396.4C248.761 396.402 248.787 396.403 248.812 396.403C249.098 396.403 249.371 396.281 249.561 396.065C259.861 384.414 274.669 377.732 290.188 377.732C295.476 377.732 300.584 378.506 305.419 379.925L287.573 334.18H224.427L206.386 380.424C209.691 379.454 213.182 378.925 216.796 378.925Z" fill="#D9EAFC"/>
<path d="M232.659 334.179H224.427L206.386 380.423C209.194 379.6 212.142 379.117 215.18 378.983L232.659 334.179Z" fill="#AEC1ED"/>
<path d="M197.586 426.192C197.626 426.456 197.769 426.693 197.984 426.851C198.156 426.978 198.364 427.045 198.575 427.045C198.627 427.045 198.68 427.041 198.732 427.033C202.302 426.465 205.887 426.177 209.387 426.177C226.486 426.177 242.797 432.602 255.318 444.268C255.51 444.447 255.755 444.536 256 444.536C256.245 444.536 256.49 444.447 256.682 444.268C269.202 432.602 285.514 426.177 302.613 426.177C306.112 426.177 309.698 426.465 313.268 427.033C313.321 427.041 313.373 427.045 313.425 427.045C313.636 427.045 313.844 426.978 314.016 426.851C314.231 426.693 314.374 426.456 314.414 426.192C316.262 413.754 320.943 401.974 327.966 391.693C318.088 382.421 304.807 376.731 290.188 376.731C273.711 376.731 258.929 383.957 248.812 395.402C242.036 384.891 230.234 377.924 216.797 377.924C203.908 377.924 192.524 384.335 185.635 394.136C191.765 403.825 195.883 414.727 197.586 426.192Z" fill="#AEC1ED"/>
<path d="M198.576 426.045C192.558 385.535 157.641 354.454 115.457 354.454C86.172 354.454 60.396 369.438 45.352 392.151C68.386 430.838 101.777 462.626 141.696 483.722C145.965 454.156 169.144 430.721 198.576 426.045Z" fill="#FFF8AF"/>
<path d="M123.849 364.787C145.281 364.787 164.927 372.389 180.274 385.024C164.861 366.359 141.555 354.454 115.457 354.454C86.172 354.454 60.396 369.438 45.352 392.151C47.339 395.488 49.409 398.771 51.548 402.003C67.667 379.477 94.036 364.787 123.849 364.787Z" fill="#FBEA40"/>
<path d="M396.543 354.454C354.359 354.454 319.442 385.536 313.424 426.045C342.856 430.721 366.035 454.156 370.304 483.722C410.222 462.626 443.614 430.837 466.648 392.151C451.604 369.438 425.828 354.454 396.543 354.454Z" fill="#FFF8AF"/>
<path d="M401.627 354.61C399.945 354.51 398.251 354.454 396.543 354.454C354.359 354.454 319.442 385.536 313.424 426.045C316.56 426.543 319.62 427.267 322.598 428.176C330.96 389.897 362.404 360.256 401.627 354.61Z" fill="#FBEA40"/>
<path d="M302.612 425.177C284.596 425.177 268.217 432.153 256 443.536C243.783 432.152 227.404 425.177 209.388 425.177C174.953 425.177 146.468 450.623 141.693 483.735C175.821 501.772 214.713 512 256 512C297.287 512 336.179 501.772 370.307 483.735C365.532 450.623 337.047 425.177 302.612 425.177Z" fill="#FFF487"/>
<path d="M223.686 433.681C233.121 433.681 242.125 435.516 250.366 438.843C238.943 430.274 224.766 425.177 209.387 425.177C174.952 425.177 146.467 450.623 141.692 483.735C145.715 485.861 149.806 487.875 153.957 489.779C160.964 457.704 189.508 433.681 223.686 433.681Z" fill="#FFE900"/>
<path d="M278.528 334.179H263.409L265.338 349.44C265.857 353.55 269.615 356.457 273.719 355.94C277.828 355.42 280.739 351.668 280.219 347.559L278.528 334.179Z" fill="#AEC1ED"/>
<path d="M233.472 334.179L229.506 365.559C228.987 369.668 231.897 373.421 236.007 373.94C236.326 373.98 236.643 374 236.957 374C240.68 373.999 243.91 371.229 244.389 367.439L248.593 334.178H233.472V334.179V334.179Z" fill="#AEC1ED"/>
<path d="M179.108 195.717C179.108 187.562 179.414 179.429 179.986 171.355C155.926 184.904 139.35 215.088 139.35 250.033C139.35 268.489 143.939 286.09 152.62 300.933C153.435 302.327 154.91 303.124 156.442 303.124C157.002 303.124 157.569 303.018 158.114 302.795C169.523 298.131 181.715 295.735 194.358 295.635C184.375 264.907 179.108 230.591 179.108 195.717Z" fill="#FE3745"/>
<path d="M150.689 250.033C150.689 221.17 162.004 195.566 179.497 179.89C179.631 177.039 179.786 174.193 179.987 171.355C155.927 184.904 139.351 215.088 139.351 250.033C139.351 268.489 143.94 286.09 152.621 300.933C153.436 302.327 154.911 303.124 156.443 303.124C157.003 303.124 157.57 303.018 158.115 302.795C159.995 302.026 161.905 301.342 163.826 300.697C155.233 285.903 150.689 268.392 150.689 250.033Z" fill="#B7092B"/>
<path d="M332.013 171.355C332.585 179.43 332.891 187.563 332.891 195.717C332.891 230.59 327.624 264.906 317.64 295.635C330.284 295.735 342.475 298.131 353.884 302.795C354.429 303.018 354.997 303.124 355.556 303.124C357.089 303.124 358.563 302.326 359.378 300.933C368.06 286.09 372.648 268.489 372.648 250.033C372.649 215.088 356.073 184.904 332.013 171.355Z" fill="#FE3745"/>
<path d="M217.708 307.125V330.179C217.708 332.929 219.958 335.179 222.708 335.179H289.291C292.041 335.179 294.291 332.929 294.291 330.179V307.125H217.708Z" fill="#FE3745"/>
<path d="M234.715 330.179V307.125H217.708V330.179C217.708 332.929 219.958 335.179 222.708 335.179H239.715C236.965 335.179 234.715 332.929 234.715 330.179Z" fill="#B7092B"/>
<path d="M316.854 90.318H195.145C183.991 122.471 178.108 158.661 178.108 195.717C178.108 234.239 184.497 272.104 196.583 305.217C197.221 306.963 198.881 308.125 200.74 308.125H311.259C313.118 308.125 314.779 306.963 315.416 305.217C327.502 272.104 333.891 234.239 333.891 195.717C333.892 158.661 328.009 122.472 316.854 90.318Z" fill="#EEF6FF"/>
<path d="M210.756 305.217C198.669 272.104 192.281 234.239 192.281 195.717C192.281 158.661 198.164 122.471 209.318 90.318H195.146C183.992 122.471 178.109 158.661 178.109 195.717C178.109 234.239 184.498 272.104 196.584 305.217C197.222 306.963 198.882 308.125 200.741 308.125H214.913C213.054 308.125 211.394 306.963 210.756 305.217Z" fill="#D9EAFC"/>
<path d="M227.179 90.318V106.912C227.179 109.662 229.429 111.912 232.179 111.912H279.821C282.571 111.912 284.821 109.662 284.821 106.912V90.318H227.179Z" fill="#EA2A3D"/>
<path d="M238.517 106.912V90.318H227.179V106.912C227.179 109.662 229.429 111.912 232.179 111.912H243.517C240.767 111.912 238.517 109.662 238.517 106.912Z" fill="#B7092B"/>
<path d="M256 0C255.013 0 254.027 0.329 253.215 0.986C230.877 19.075 212.061 46.515 198.804 80.34C197.394 83.939 196.069 87.609 194.798 91.318H317.201C315.93 87.609 314.605 83.939 313.195 80.34C299.938 46.515 281.123 19.075 258.784 0.986C257.973 0.329 256.987 0 256 0Z" fill="#FE3745"/>
<path d="M263.086 4.628C261.667 3.377 260.234 2.16 258.785 0.986C257.973 0.329 256.987 0 256 0C255.013 0 254.027 0.329 253.215 0.986C230.877 19.075 212.061 46.515 198.804 80.34C197.394 83.939 196.069 87.609 194.798 91.318H208.97C210.241 87.609 211.566 83.939 212.976 80.34C225.374 48.709 242.632 22.667 263.086 4.628Z" fill="#B7092B"/>
<path d="M256 231.95C284.178 231.95 307.02 209.108 307.02 180.93C307.02 152.752 284.178 129.91 256 129.91C227.822 129.91 204.98 152.752 204.98 180.93C204.98 209.108 227.822 231.95 256 231.95Z" fill="#445EA0"/>
<path d="M256 213.661C274.077 213.661 288.731 199.007 288.731 180.93C288.731 162.853 274.077 148.199 256 148.199C237.923 148.199 223.269 162.853 223.269 180.93C223.269 199.007 237.923 213.661 256 213.661Z" fill="#69CDFF"/>
<path d="M235.268 180.932C235.268 196.959 246.789 210.287 262 213.106C260.054 213.466 258.051 213.664 256 213.664C237.922 213.664 223.269 199.009 223.269 180.932C223.269 162.855 237.923 148.201 256 148.201C258.05 148.201 260.054 148.399 262 148.759C246.789 151.578 235.268 164.905 235.268 180.932Z" fill="#52BBEF"/>
</svg>
