<svg height="496pt" viewBox="0 0 496 496" width="496pt" xmlns="http://www.w3.org/2000/svg"><path d="m104 360h200.078125c-7.039063 9.28125-12.078125 20.160156-14.476563 32h-249.601562c-17.679688 0-32-14.320312-32-32v-272c0-17.679688 14.320312-32 32-32h124l-8 32h-108c-4.398438 0-8 3.601562-8 8v200zm0 0" fill="#b4dd7f"/><path d="m488 88v272c0 17.679688-14.320312 32-32 32h-9.601562c-2.398438-11.839844-7.4375-22.71875-14.476563-32h16.078125c4.398438 0 8-3.601562 8-8v-256c0-4.398438-3.601562-8-8-8h-108l-8-32h124c17.679688 0 32 14.320312 32 32zm0 0" fill="#b4dd7f"/><path d="m40 296v-200c0-4.398438 3.601562-8 8-8h108l-4 16h192l-4-16h108c4.398438 0 8 3.601562 8 8v256c0 4.398438-3.601562 8-8 8h-16.078125c-14.5625-19.441406-37.761719-32-63.921875-32s-49.359375 12.558594-63.921875 32h-200.078125v-64zm221.28125-39.121094c1.757812-2.558594 2.71875-5.597656 2.71875-8.878906 0-8.800781-7.199219-16-16-16s-16 7.199219-16 16c0 3.761719 1.28125 7.28125 3.519531 10 2.960938 3.679688 7.441407 6 12.480469 6 5.519531 0 10.398438-2.878906 13.28125-7.121094zm0 0" fill="#e6e9ed"/><path d="m332 56 12 48h-192l16-64h40c0-17.679688 14.320312-32 32-32h16c8.800781 0 16.800781 3.601562 22.640625 9.359375 5.757813 5.839844 9.359375 13.839844 9.359375 22.640625h40zm0 0" fill="#d3a06c"/><path d="m104 296v64l-64-64zm0 0" fill="#ffeaa7"/><g fill="#ff826e"><path d="m180.480469 302c2.238281 2.71875 3.519531 6.238281 3.519531 10 0 8.800781-7.199219 16-16 16s-16-7.199219-16-16 7.199219-16 16-16c5.039062 0 9.519531 2.320312 12.480469 6zm0 0"/><path d="m248 232c8.800781 0 16 7.199219 16 16 0 3.28125-.960938 6.320312-2.71875 8.878906-2.882812 4.242188-7.761719 7.121094-13.28125 7.121094-5.039062 0-9.519531-2.320312-12.480469-6-2.238281-2.71875-3.519531-6.238281-3.519531-10 0-8.800781 7.199219-16 16-16zm0 0"/><path d="m331.28125 284.71875c2.957031 2.882812 4.71875 6.882812 4.71875 11.28125 0 8.800781-7.199219 16-16 16s-16-7.199219-16-16c0-3.28125.960938-6.320312 2.71875-8.878906 2.882812-4.242188 7.761719-7.121094 13.28125-7.121094 4.398438 0 8.398438 1.761719 11.28125 4.71875zm0 0"/><path d="m408 192c8.800781 0 16 7.199219 16 16s-7.199219 16-16 16c-4.398438 0-8.398438-1.761719-11.28125-4.71875-2.957031-2.882812-4.71875-6.882812-4.71875-11.28125 0-8.800781 7.199219-16 16-16zm0 0"/></g><path d="m446.398438 392c1.042968 5.121094 1.601562 10.480469 1.601562 16 0 44.160156-35.839844 80-80 80s-80-35.839844-80-80c0-5.519531.558594-10.878906 1.601562-16 2.398438-11.839844 7.4375-22.71875 14.476563-32 14.5625-19.441406 37.761719-32 63.921875-32s49.359375 12.558594 63.921875 32c7.039063 9.28125 12.078125 20.160156 14.476563 32zm0 0" fill="#fcd770"/><path d="m334.246094 32h-39.046875c-3.71875-18.230469-19.878907-32-39.199219-32h-16c-19.320312 0-35.480469 13.769531-39.191406 32h-39.046875l-20 80h212.496093zm-172 64 12-48h41.753906v-8c0-13.230469 10.769531-24 24-24h16c13.230469 0 24 10.769531 24 24v8h41.753906l12 48zm0 0"/><path d="m256 40c0 4.417969-3.582031 8-8 8s-8-3.582031-8-8 3.582031-8 8-8 8 3.582031 8 8zm0 0"/><path d="m184 64h16v16h-16zm0 0"/><path d="m296 64h16v16h-16zm0 0"/><path d="m40 304h56v56h16v-72h-72zm0 0"/><path d="m64 128h128v16h-128zm0 0"/><path d="m64 160h128v16h-128zm0 0"/><path d="m64 192h128v16h-128zm0 0"/><path d="m176 224h16v16h-16zm0 0"/><path d="m64 224h96v16h-96zm0 0"/><path d="m64 256h128v16h-128zm0 0"/><path d="m376 112v16h32.574219c-29.839844 42.128906-73.40625 73.496094-122.871094 88.335938l4.601563 15.328124c49.902343-14.976562 94.054687-45.800781 125.695312-87.0625v23.398438h16v-56zm0 0"/><path d="m408 184c-13.230469 0-24 10.769531-24 24 0 3.695312.910156 7.152344 2.40625 10.289062l-56.117188 56.117188c-3.136718-1.503906-6.59375-2.40625-10.289062-2.40625-5.382812 0-10.304688 1.839844-14.3125 4.847656l-34.496094-23c.480469-1.878906.808594-3.816406.808594-5.847656 0-13.230469-10.769531-24-24-24s-24 10.769531-24 24c0 2.753906.558594 5.359375 1.414062 7.824219l-44.804687 35.847656c-3.671875-2.289063-7.96875-3.671875-12.609375-3.671875-13.230469 0-24 10.769531-24 24s10.769531 24 24 24 24-10.769531 24-24c0-2.753906-.558594-5.351562-1.414062-7.816406l44.8125-35.847656c3.671874 2.28125 7.96875 3.664062 12.601562 3.664062 5.382812 0 10.304688-1.839844 14.3125-4.847656l34.496094 23c-.480469 1.878906-.808594 3.816406-.808594 5.847656 0 13.230469 10.769531 24 24 24s24-10.769531 24-24c0-3.695312-.902344-7.152344-2.40625-10.28125l56.125-56.117188c3.128906 1.496094 6.585938 2.398438 10.28125 2.398438 13.230469 0 24-10.769531 24-24s-10.769531-24-24-24zm-240 136c-4.40625 0-8-3.585938-8-8s3.59375-8 8-8 8 3.585938 8 8-3.59375 8-8 8zm80-64c-4.40625 0-8-3.585938-8-8s3.59375-8 8-8 8 3.585938 8 8-3.59375 8-8 8zm72 48c-4.40625 0-8-3.585938-8-8s3.59375-8 8-8 8 3.585938 8 8-3.59375 8-8 8zm88-88c-4.40625 0-8-3.585938-8-8s3.59375-8 8-8 8 3.585938 8 8-3.59375 8-8 8zm0 0"/><path d="m392 448h-24c-13.230469 0-24-10.769531-24-24h16c0 4.414062 3.59375 8 8 8h8v-8c0-4.414062-3.59375-8-8-8-13.230469 0-24-10.769531-24-24v-24h24c13.230469 0 24 10.769531 24 24h-16c0-4.414062-3.59375-8-8-8h-8v8c0 4.414062 3.59375 8 8 8 13.230469 0 24 10.769531 24 24zm0 0"/><path d="m360 352h16v24h-16zm0 0"/><path d="m360 440h16v24h-16zm0 0"/><path d="m408 400h16v16h-16zm0 0"/><path d="m312 400h16v16h-16zm0 0"/><path d="m368 496c-48.519531 0-88-39.480469-88-88s39.480469-88 88-88 88 39.480469 88 88-39.480469 88-88 88zm0-160c-39.695312 0-72 32.296875-72 72s32.304688 72 72 72 72-32.296875 72-72-32.304688-72-72-72zm0 0"/><path d="m304.113281 368h-203.425781l-68.6875-68.6875v-203.3125c0-8.824219 7.175781-16 16-16h108v16h-108v196.6875l59.3125 59.3125h196.800781zm0 0"/><path d="m448 368h-16.113281v-16h16.113281v-256h-108v-16h108c8.824219 0 16 7.175781 16 16v256c0 8.824219-7.175781 16-16 16zm0 0"/><path d="m289.609375 400h-249.609375c-22.054688 0-40-17.945312-40-40v-272c0-22.054688 17.945312-40 40-40h124v16h-124c-13.230469 0-24 10.769531-24 24v272c0 13.230469 10.769531 24 24 24h249.609375zm0 0"/><path d="m456 400h-9.609375v-16h9.609375c13.230469 0 24-10.769531 24-24v-272c0-13.230469-10.769531-24-24-24h-124v-16h124c22.054688 0 40 17.945312 40 40v272c0 22.054688-17.945312 40-40 40zm0 0"/></svg>